<svg viewBox="0 0 940 710" xmlns="http://www.w3.org/2000/svg" role="img" font-family="system-ui, -apple-system, sans-serif">
  <title>SmartDesk AI Architecture — Two-Path Design</title>
  <desc>Knowledge Path: KB agents flow through RAG Pipeline then LLM. Action Path: Ticket and Off-topic agents go directly to external services, bypassing RAG entirely.</desc>

  <defs>
    <marker id="v2-blue" markerWidth="7" markerHeight="7" refX="5" refY="3" orient="auto"><path d="M0,0 L0,6 L7,3z" fill="#3b82f6"/></marker>
    <marker id="v2-purple" markerWidth="7" markerHeight="7" refX="5" refY="3" orient="auto"><path d="M0,0 L0,6 L7,3z" fill="#7c3aed"/></marker>
    <marker id="v2-green" markerWidth="7" markerHeight="7" refX="5" refY="3" orient="auto"><path d="M0,0 L0,6 L7,3z" fill="#059669"/></marker>
    <marker id="v2-pink" markerWidth="7" markerHeight="7" refX="5" refY="3" orient="auto"><path d="M0,0 L0,6 L7,3z" fill="#db2777"/></marker>
    <marker id="v2-amber" markerWidth="7" markerHeight="7" refX="5" refY="3" orient="auto"><path d="M0,0 L0,6 L7,3z" fill="#d97706"/></marker>
    <marker id="v2-indigo" markerWidth="7" markerHeight="7" refX="5" refY="3" orient="auto"><path d="M0,0 L0,6 L7,3z" fill="#4f46e5"/></marker>
  </defs>

  <!-- Page background -->
  <rect width="940" height="710" fill="#f8f9fa" rx="8"/>

  <!-- Title -->
  <text x="470" y="28" text-anchor="middle" font-size="15" font-weight="700" fill="#111827">SmartDesk AI — System Architecture</text>

  <!-- LAYER 1: USER INTERFACE -->
  <text x="22" y="46" font-size="8.5" font-weight="700" fill="#9ca3af" letter-spacing="1">USER INTERFACE</text>
  <line x1="22" y1="50" x2="918" y2="50" stroke="#e5e7eb" stroke-width="1"/>

  <rect x="175" y="57" width="148" height="56" rx="7" fill="#dbeafe" stroke="#3b82f6" stroke-width="1.5"/>
  <text x="249" y="77" text-anchor="middle" font-size="11" font-weight="700" fill="#1d4ed8">CLI</text>
  <text x="249" y="91" text-anchor="middle" font-size="8.5" fill="#1e40af">main.py</text>
  <text x="249" y="105" text-anchor="middle" font-size="8" fill="#3b82f6">REPL · session state</text>

  <rect x="617" y="57" width="148" height="56" rx="7" fill="#dbeafe" stroke="#3b82f6" stroke-width="1.5"/>
  <text x="691" y="77" text-anchor="middle" font-size="11" font-weight="700" fill="#1d4ed8">Gradio UI</text>
  <text x="691" y="91" text-anchor="middle" font-size="8.5" fill="#1e40af">ui/app.py</text>
  <text x="691" y="105" text-anchor="middle" font-size="8" fill="#3b82f6">Multi-turn · gr.State()</text>

  <!-- LAYER 2: ORCHESTRATION -->
  <text x="22" y="124" font-size="8.5" font-weight="700" fill="#9ca3af" letter-spacing="1">ORCHESTRATION</text>
  <line x1="22" y1="128" x2="918" y2="128" stroke="#e5e7eb" stroke-width="1"/>

  <rect x="90" y="134" width="760" height="72" rx="7" fill="#ede9fe" stroke="#7c3aed" stroke-width="1.5"/>
  <text x="470" y="154" text-anchor="middle" font-size="11" font-weight="700" fill="#5b21b6">LangGraph Orchestrator</text>
  <text x="470" y="169" text-anchor="middle" font-size="8.5" fill="#6d28d9">orchestrator/graph.py · StateGraph(AgentState) · graph.compile() · run_once()</text>
  <rect x="128" y="176" width="684" height="22" rx="4" fill="#c4b5fd"/>
  <text x="470" y="191" text-anchor="middle" font-size="8.5" font-weight="600" fill="#4c1d95">Supervisor Node — LLM classifier → sets state["route"] → conditional edges to agent nodes</text>

  <!-- UI → Orchestrator arrows -->
  <line x1="249" y1="113" x2="310" y2="134" stroke="#3b82f6" stroke-width="1.5" marker-end="url(#v2-blue)"/>
  <line x1="691" y1="113" x2="640" y2="134" stroke="#3b82f6" stroke-width="1.5" marker-end="url(#v2-blue)"/>

  <!-- LAYER 3: AGENTS (two swimlanes) -->
  <text x="22" y="215" font-size="8.5" font-weight="700" fill="#9ca3af" letter-spacing="1">AGENT NODES</text>
  <line x1="22" y1="219" x2="918" y2="219" stroke="#e5e7eb" stroke-width="1"/>

  <!-- Knowledge Path swimlane -->
  <rect x="20" y="225" width="456" height="158" rx="7" fill="#f0fdf4" stroke="#86efac" stroke-width="1.5" stroke-dasharray="5,3"/>
  <text x="30" y="239" font-size="8.5" font-weight="700" fill="#15803d">KNOWLEDGE PATH</text>

  <!-- Action Path swimlane -->
  <rect x="486" y="225" width="432" height="158" rx="7" fill="#fffbeb" stroke="#fde68a" stroke-width="1.5" stroke-dasharray="5,3"/>
  <text x="496" y="239" font-size="8.5" font-weight="700" fill="#b45309">ACTION PATH</text>

  <!-- IT KB Agent -->
  <rect x="26" y="243" width="134" height="132" rx="6" fill="#d1fae5" stroke="#059669" stroke-width="1.5"/>
  <text x="93" y="261" text-anchor="middle" font-size="10" font-weight="700" fill="#065f46">IT Knowledge</text>
  <text x="93" y="274" text-anchor="middle" font-size="10" font-weight="700" fill="#065f46">Agent</text>
  <line x1="36" y1="280" x2="150" y2="280" stroke="#a7f3d0" stroke-width="1"/>
  <text x="93" y="294" text-anchor="middle" font-size="7.5" fill="#047857">Hybrid RAG retrieval</text>
  <text x="93" y="307" text-anchor="middle" font-size="7.5" fill="#047857">Confidence scoring</text>
  <text x="93" y="320" text-anchor="middle" font-size="7.5" fill="#047857">LLM answer synthesis</text>
  <text x="93" y="333" text-anchor="middle" font-size="7.5" fill="#047857">Escalation fallback</text>
  <text x="93" y="346" text-anchor="middle" font-size="7.5" fill="#059669">it_knowledge_agent.py</text>
  <text x="93" y="364" text-anchor="middle" font-size="9" fill="#059669">⬇ via RAG</text>

  <!-- HR KB Agent -->
  <rect x="172" y="243" width="134" height="132" rx="6" fill="#d1fae5" stroke="#059669" stroke-width="1.5"/>
  <text x="239" y="261" text-anchor="middle" font-size="10" font-weight="700" fill="#065f46">HR Knowledge</text>
  <text x="239" y="274" text-anchor="middle" font-size="10" font-weight="700" fill="#065f46">Agent</text>
  <line x1="182" y1="280" x2="296" y2="280" stroke="#a7f3d0" stroke-width="1"/>
  <text x="239" y="294" text-anchor="middle" font-size="7.5" fill="#047857">Hybrid RAG retrieval</text>
  <text x="239" y="307" text-anchor="middle" font-size="7.5" fill="#047857">Confidence scoring</text>
  <text x="239" y="320" text-anchor="middle" font-size="7.5" fill="#047857">LLM answer synthesis</text>
  <text x="239" y="333" text-anchor="middle" font-size="7.5" fill="#047857">Escalation fallback</text>
  <text x="239" y="346" text-anchor="middle" font-size="7.5" fill="#059669">hr_knowledge_agent.py</text>
  <text x="239" y="364" text-anchor="middle" font-size="9" fill="#059669">⬇ via RAG</text>

  <!-- Combined KB Agent -->
  <rect x="318" y="243" width="150" height="132" rx="6" fill="#d1fae5" stroke="#059669" stroke-width="1.5"/>
  <text x="393" y="261" text-anchor="middle" font-size="10" font-weight="700" fill="#065f46">Combined KB</text>
  <text x="393" y="274" text-anchor="middle" font-size="10" font-weight="700" fill="#065f46">Agent</text>
  <line x1="328" y1="280" x2="458" y2="280" stroke="#a7f3d0" stroke-width="1"/>
  <text x="393" y="294" text-anchor="middle" font-size="7.5" fill="#047857">IT + HR RAG retrieval</text>
  <text x="393" y="307" text-anchor="middle" font-size="7.5" fill="#047857">Cross-domain synthesis</text>
  <text x="393" y="320" text-anchor="middle" font-size="7.5" fill="#047857">Unified answer</text>
  <text x="393" y="346" text-anchor="middle" font-size="7.5" fill="#059669">combined_knowledge</text>
  <text x="393" y="357" text-anchor="middle" font-size="7.5" fill="#059669">_agent.py</text>
  <text x="393" y="368" text-anchor="middle" font-size="9" fill="#059669">⬇ via RAG</text>

  <!-- Ticket Creation Agent -->
  <rect x="492" y="243" width="128" height="132" rx="6" fill="#fef3c7" stroke="#d97706" stroke-width="1.5"/>
  <text x="556" y="261" text-anchor="middle" font-size="10" font-weight="700" fill="#92400e">Ticket Creation</text>
  <text x="556" y="274" text-anchor="middle" font-size="10" font-weight="700" fill="#92400e">Agent</text>
  <line x1="502" y1="280" x2="610" y2="280" stroke="#fcd34d" stroke-width="1"/>
  <text x="556" y="294" text-anchor="middle" font-size="7.5" fill="#b45309">LLM field extraction</text>
  <text x="556" y="307" text-anchor="middle" font-size="7.5" fill="#b45309">Email validation</text>
  <text x="556" y="320" text-anchor="middle" font-size="7.5" fill="#b45309">HITL confirmation</text>
  <text x="556" y="333" text-anchor="middle" font-size="7.5" fill="#b45309">Pydantic schema</text>
  <text x="556" y="346" text-anchor="middle" font-size="7.5" fill="#d97706">ticket_creation_agent.py</text>
  <text x="556" y="364" text-anchor="middle" font-size="9" fill="#d97706">⬇ direct</text>

  <!-- Ticket Status Agent -->
  <rect x="632" y="243" width="128" height="132" rx="6" fill="#fef3c7" stroke="#d97706" stroke-width="1.5"/>
  <text x="696" y="261" text-anchor="middle" font-size="10" font-weight="700" fill="#92400e">Ticket Status</text>
  <text x="696" y="274" text-anchor="middle" font-size="10" font-weight="700" fill="#92400e">Agent</text>
  <line x1="642" y1="280" x2="750" y2="280" stroke="#fcd34d" stroke-width="1"/>
  <text x="696" y="294" text-anchor="middle" font-size="7.5" fill="#b45309">Ticket ID lookup</text>
  <text x="696" y="307" text-anchor="middle" font-size="7.5" fill="#b45309">Email validation</text>
  <text x="696" y="320" text-anchor="middle" font-size="7.5" fill="#b45309">Format results</text>
  <text x="696" y="346" text-anchor="middle" font-size="7.5" fill="#d97706">ticket_status_agent.py</text>
  <text x="696" y="364" text-anchor="middle" font-size="9" fill="#d97706">⬇ direct</text>

  <!-- Off-topic Node -->
  <rect x="772" y="243" width="134" height="132" rx="6" fill="#f3f4f6" stroke="#6b7280" stroke-width="1.5"/>
  <text x="839" y="261" text-anchor="middle" font-size="10" font-weight="700" fill="#374151">Off-topic</text>
  <text x="839" y="274" text-anchor="middle" font-size="10" font-weight="700" fill="#374151">Node</text>
  <line x1="782" y1="280" x2="896" y2="280" stroke="#d1d5db" stroke-width="1"/>
  <text x="839" y="294" text-anchor="middle" font-size="7.5" fill="#4b5563">Friendly fallback</text>
  <text x="839" y="307" text-anchor="middle" font-size="7.5" fill="#4b5563">Warm LLM reply</text>
  <text x="839" y="320" text-anchor="middle" font-size="7.5" fill="#4b5563">Domain redirect</text>
  <text x="839" y="346" text-anchor="middle" font-size="7.5" fill="#6b7280">graph.py</text>
  <text x="839" y="364" text-anchor="middle" font-size="9" fill="#6b7280">⬇ direct</text>

  <!-- Supervisor → agents (dashed purple) -->
  <line x1="270" y1="206" x2="93" y2="243" stroke="#7c3aed" stroke-width="1.2" stroke-dasharray="4,3" marker-end="url(#v2-purple)"/>
  <line x1="340" y1="206" x2="239" y2="243" stroke="#7c3aed" stroke-width="1.2" stroke-dasharray="4,3" marker-end="url(#v2-purple)"/>
  <line x1="420" y1="206" x2="393" y2="243" stroke="#7c3aed" stroke-width="1.2" stroke-dasharray="4,3" marker-end="url(#v2-purple)"/>
  <line x1="510" y1="206" x2="556" y2="243" stroke="#7c3aed" stroke-width="1.2" stroke-dasharray="4,3" marker-end="url(#v2-purple)"/>
  <line x1="580" y1="206" x2="696" y2="243" stroke="#7c3aed" stroke-width="1.2" stroke-dasharray="4,3" marker-end="url(#v2-purple)"/>
  <line x1="640" y1="206" x2="839" y2="243" stroke="#7c3aed" stroke-width="1.2" stroke-dasharray="4,3" marker-end="url(#v2-purple)"/>

  <!-- LAYER 4: RAG (left) + DIRECT NOTE (right) -->
  <text x="22" y="405" font-size="8.5" font-weight="700" fill="#9ca3af" letter-spacing="1">RAG PIPELINE</text>
  <line x1="22" y1="409" x2="918" y2="409" stroke="#e5e7eb" stroke-width="1"/>

  <!-- RAG background (left only) -->
  <rect x="20" y="415" width="456" height="90" rx="7" fill="#fce7f3" stroke="#f9a8d4" stroke-width="1.2"/>

  <!-- Qdrant -->
  <rect x="26" y="423" width="134" height="74" rx="5" fill="white" stroke="#db2777" stroke-width="1.2"/>
  <text x="93" y="441" text-anchor="middle" font-size="10" font-weight="700" fill="#9d174d">Qdrant (local)</text>
  <text x="93" y="454" text-anchor="middle" font-size="7.5" fill="#be185d">vector_store.py</text>
  <line x1="36" y1="458" x2="150" y2="458" stroke="#f9a8d4"/>
  <text x="93" y="471" text-anchor="middle" font-size="7.5" fill="#be185d">dense → COSINE</text>
  <text x="93" y="483" text-anchor="middle" font-size="7.5" fill="#be185d">sparse → BM25 prefetch</text>

  <!-- Embeddings -->
  <rect x="172" y="423" width="134" height="74" rx="5" fill="white" stroke="#db2777" stroke-width="1.2"/>
  <text x="239" y="441" text-anchor="middle" font-size="10" font-weight="700" fill="#9d174d">Embeddings</text>
  <text x="239" y="454" text-anchor="middle" font-size="7.5" fill="#be185d">embeddings.py</text>
  <line x1="182" y1="458" x2="296" y2="458" stroke="#f9a8d4"/>
  <text x="239" y="471" text-anchor="middle" font-size="7.5" fill="#be185d">OpenAI text-embed-3</text>
  <text x="239" y="483" text-anchor="middle" font-size="7.5" fill="#be185d">FastEmbed BAAI/bge</text>

  <!-- KB Docs -->
  <rect x="318" y="423" width="150" height="74" rx="5" fill="white" stroke="#db2777" stroke-width="1.2"/>
  <text x="393" y="441" text-anchor="middle" font-size="10" font-weight="700" fill="#9d174d">Knowledge Base</text>
  <text x="393" y="454" text-anchor="middle" font-size="7.5" fill="#be185d">ingestion.py</text>
  <line x1="328" y1="458" x2="458" y2="458" stroke="#f9a8d4"/>
  <text x="393" y="471" text-anchor="middle" font-size="7.5" fill="#be185d">IT docs · HR docs</text>
  <text x="393" y="483" text-anchor="middle" font-size="7.5" fill="#be185d">chunk 500ch · overlap 50</text>

  <!-- RAG internal flow arrows -->
  <line x1="318" y1="460" x2="306" y2="460" stroke="#db2777" stroke-width="1" marker-end="url(#v2-pink)"/>
  <line x1="172" y1="460" x2="160" y2="460" stroke="#db2777" stroke-width="1" marker-end="url(#v2-pink)"/>

  <!-- "Bypasses RAG" box on right -->
  <rect x="486" y="415" width="432" height="90" rx="7" fill="#fffbeb" stroke="#fde68a" stroke-width="1.5" stroke-dasharray="6,3"/>
  <text x="702" y="448" text-anchor="middle" font-size="12" fill="#92400e">⚡ Bypasses RAG entirely</text>
  <text x="702" y="467" text-anchor="middle" font-size="9" fill="#b45309">Ticket agents call the Ticketing API directly</text>
  <text x="702" y="482" text-anchor="middle" font-size="9" fill="#b45309">Off-topic node calls LLM directly — no retrieval step</text>
  <text x="702" y="497" text-anchor="middle" font-size="8" fill="#d97706" font-style="italic">dashed arrows indicate direct path below ↓</text>

  <!-- KB agents → RAG (solid green) -->
  <line x1="93" y1="375" x2="93" y2="423" stroke="#059669" stroke-width="1.8" marker-end="url(#v2-green)"/>
  <line x1="239" y1="375" x2="239" y2="423" stroke="#059669" stroke-width="1.8" marker-end="url(#v2-green)"/>
  <line x1="393" y1="375" x2="393" y2="423" stroke="#059669" stroke-width="1.8" marker-end="url(#v2-green)"/>

  <!-- Action agents → SKIP RAG → land at external (dashed) -->
  <line x1="556" y1="375" x2="556" y2="415" stroke="#d97706" stroke-width="1.5" stroke-dasharray="5,3"/>
  <line x1="556" y1="505" x2="556" y2="542" stroke="#d97706" stroke-width="1.5" stroke-dasharray="5,3" marker-end="url(#v2-amber)"/>
  <line x1="696" y1="375" x2="696" y2="415" stroke="#d97706" stroke-width="1.5" stroke-dasharray="5,3"/>
  <line x1="696" y1="505" x2="696" y2="542" stroke="#d97706" stroke-width="1.5" stroke-dasharray="5,3" marker-end="url(#v2-amber)"/>
  <line x1="839" y1="375" x2="839" y2="415" stroke="#6b7280" stroke-width="1.5" stroke-dasharray="5,3"/>
  <line x1="839" y1="505" x2="839" y2="542" stroke="#6b7280" stroke-width="1.5" stroke-dasharray="5,3" marker-end="url(#v2-indigo)"/>

  <!-- LAYER 5: EXTERNAL SERVICES -->
  <text x="22" y="522" font-size="8.5" font-weight="700" fill="#9ca3af" letter-spacing="1">EXTERNAL SERVICES</text>
  <line x1="22" y1="526" x2="918" y2="526" stroke="#e5e7eb" stroke-width="1"/>

  <rect x="20" y="542" width="456" height="66" rx="7" fill="#e0e7ff" stroke="#4f46e5" stroke-width="1.5"/>
  <text x="248" y="563" text-anchor="middle" font-size="11" font-weight="700" fill="#3730a3">LLM API</text>
  <text x="248" y="578" text-anchor="middle" font-size="8.5" fill="#4338ca">agents/_llm.py · dispatches to OpenAI or Anthropic</text>
  <text x="248" y="593" text-anchor="middle" font-size="8" fill="#6366f1">KB path: answer synthesis after RAG retrieval · Off-topic: direct response generation</text>

  <rect x="486" y="542" width="432" height="66" rx="7" fill="#e0e7ff" stroke="#4f46e5" stroke-width="1.5"/>
  <text x="702" y="563" text-anchor="middle" font-size="11" font-weight="700" fill="#3730a3">Ticketing System</text>
  <text x="702" y="578" text-anchor="middle" font-size="8.5" fill="#4338ca">tools/ticketing.py · MockTicketingClient (Jira-ready)</text>
  <text x="702" y="593" text-anchor="middle" font-size="8" fill="#6366f1">create_ticket · get_tickets_for_email · HITL gate (UI: multi-turn · CLI: blocking)</text>

  <!-- RAG → LLM API -->
  <line x1="248" y1="505" x2="248" y2="542" stroke="#db2777" stroke-width="1.8" marker-end="url(#v2-pink)"/>

  <!-- LEGEND -->
  <rect x="20" y="624" width="900" height="72" rx="6" fill="white" stroke="#e5e7eb" stroke-width="1"/>
  <text x="34" y="641" font-size="9" font-weight="700" fill="#374151">Legend</text>
  <line x1="90" y1="637" x2="118" y2="637" stroke="#3b82f6" stroke-width="1.5" marker-end="url(#v2-blue)"/>
  <text x="123" y="641" font-size="8.5" fill="#374151">User input</text>
  <line x1="192" y1="637" x2="220" y2="637" stroke="#7c3aed" stroke-width="1.2" stroke-dasharray="4,3" marker-end="url(#v2-purple)"/>
  <text x="225" y="641" font-size="8.5" fill="#374151">Conditional route</text>
  <line x1="318" y1="637" x2="346" y2="637" stroke="#059669" stroke-width="1.8" marker-end="url(#v2-green)"/>
  <text x="351" y="641" font-size="8.5" fill="#374151">Knowledge path (via RAG)</text>
  <line x1="478" y1="637" x2="506" y2="637" stroke="#d97706" stroke-width="1.5" stroke-dasharray="5,3" marker-end="url(#v2-amber)"/>
  <text x="511" y="641" font-size="8.5" fill="#374151">Action path (bypasses RAG)</text>
  <line x1="652" y1="637" x2="680" y2="637" stroke="#db2777" stroke-width="1.5" marker-end="url(#v2-pink)"/>
  <text x="685" y="641" font-size="8.5" fill="#374151">RAG internal flow</text>
  <rect x="34" y="652" width="10" height="10" rx="2" fill="#f0fdf4" stroke="#86efac" stroke-width="1" stroke-dasharray="3,2"/>
  <text x="49" y="661" font-size="8.5" fill="#374151">Knowledge Path swimlane</text>
  <rect x="192" y="652" width="10" height="10" rx="2" fill="#fffbeb" stroke="#fde68a" stroke-width="1" stroke-dasharray="3,2"/>
  <text x="207" y="661" font-size="8.5" fill="#374151">Action Path swimlane</text>
  <rect x="350" y="652" width="10" height="10" rx="2" fill="#fce7f3" stroke="#f9a8d4" stroke-width="1"/>
  <text x="365" y="661" font-size="8.5" fill="#374151">RAG Pipeline</text>
  <rect x="478" y="652" width="10" height="10" rx="2" fill="#e0e7ff" stroke="#4f46e5" stroke-width="1"/>
  <text x="493" y="661" font-size="8.5" fill="#374151">External Services</text>
</svg>
